<svg xmlns="http://www.w3.org/2000/svg" viewBox="0 0 512 512" role="img" aria-label="Linha Viva">
  <defs>
    <linearGradient id="lv-bg" x1="0" y1="0" x2="512" y2="512" gradientUnits="userSpaceOnUse">
      <stop offset="0%" stop-color="#2d6cb5"/>
      <stop offset="100%" stop-color="#38bdf8"/>
    </linearGradient>
  </defs>
  <rect width="512" height="512" rx="142" fill="url(#lv-bg)"/>
  <path
    fill="#ffffff"
    d="M349.4 44.6c5.9-13.7 1.5-29.7-10.6-39.3S293.1 0 280.2 0H88C70.3 0 56 14.3 56 32c0 13.2 8.8 24.6 21.6 28.4l171.3 64c5.9 2.2 9.9 7.9 9.9 14.2s-4 12-9.9 14.2L77.6 216.7C64.8 220.5 56 231.9 56 245.1c0 17.7 14.3 32 32 32h192.2c13.1 0 24.5-7.7 29.7-19.8s2.1-25.9-10.6-39.6l-171.3-96 171.3-64z"
    transform="translate(64 78) scale(0.98)"
  />
</svg>
